# xmcd
#
# Track frame offsets:
#	150
#	17887
#	39630
#	60005
#	81717
#	99030
#	108447
#	126020
#	142905
#	168470
#	183925
#	201637
#	225710
#	241585
#	256402
#
# Disc length: 3650 seconds
#
# Revision: 1
# Processed by: cddbd v1.5.2PL0 Copyright (c) Steve Scherf et al.
# Submitted via: FairStars CD Ripper 1.26
#
DISCID=c10e400f
DTITLE=Various Artist - Forever Soul Volume 3
DYEAR=1997
DGENRE=Soul
TTITLE0=Earth Wind and Fire - After the Love has gone
TTITLE1=Heatwave - Always and Forever
TTITLE2=Esther Phillips - What a difference the day makes
TTITLE3=Peabo Bryson - Soul Provider
TTITLE4=The Chimes - Heaven
TTITLE5=Bill Withers - Ain't no sunshine
TTITLE6=Third World - Try Jah Love
TTITLE7=Gladys Hnight and The Pips - Hero
TTITLE8=Luther Vandros - I really didn't mean it
TTITLE9=The Three Degrees - Get Your Love Back
TTITLE10=Nicole McCloud - New York Eyes (with Timmy Thomas)
TTITLE11=Cheryl Lynn - Encore
TTITLE12=Phoebe Snow - Every Night
TTITLE13=Peoples Choice - Do it Anyway you Wanna
TTITLE14=Harold Melvin and The Bluenotes - Don't Leave Me Like This
EXTD=
EXTT0=
EXTT1=
EXTT2=
EXTT3=
EXTT4=
EXTT5=
EXTT6=
EXTT7=
EXTT8=
EXTT9=
EXTT10=
EXTT11=
EXTT12=
EXTT13=
EXTT14=
PLAYORDER=
